<svg width="900" height="250" xmlns="http://www.w3.org/2000/svg">
 <!-- Created with Method Draw - http://github.com/duopixel/Method-Draw/ -->

 <g>
  <title>background</title>
  <rect fill="#fff" id="canvas_background" height="252" width="902" y="-1" x="-1"/>
  <g display="none" overflow="visible" y="0" x="0" height="100%" width="100%" id="canvasGrid">
   <rect fill="url(#gridpattern)" stroke-width="0" y="0" x="0" height="100%" width="100%"/>
  </g>
 </g>
 <g>
  <title>Layer 1</title>
  <defs>
   <style type="text/css"/>
  </defs>
  <g stroke="null" id="svg_13">
   <path stroke="null" id="svg_4" fill="#656D78" d="m65.630351,22.319568c-10.202593,0 -18.501684,7.378404 -18.501684,16.448663l0,148.021011c0,2.270841 2.066101,4.107637 4.626939,4.107637l23.122552,0l0,-168.577311l-9.247807,0z"/>
   <path stroke="null" id="svg_5" fill="#E6E9ED" d="m65.630351,174.453997c-7.669072,0 -13.874745,5.523106 -13.874745,12.335245s6.205674,12.334474 13.874745,12.334474l152.620899,0l0,-24.669719l-152.620899,0z"/>
   <path stroke="null" id="svg_6" fill="#5D9CEC" d="m222.871684,26.433372c0,-2.270841 -2.073038,-4.113804 -4.620435,-4.113804l-143.373092,0l0,156.242066l143.373092,0c2.547396,0 4.620435,-1.837181 4.620435,-4.107637l0,-148.020625z"/>
   <path stroke="null" id="svg_7" fill="#CCD1D9" d="m107.255454,190.896879l-37.004669,0c-2.547396,0 -4.620435,-1.837181 -4.620435,-4.107637s2.073038,-4.113804 4.620435,-4.113804l37.004669,0c2.554334,0 4.620435,1.842963 4.620435,4.113804s-2.066534,4.107637 -4.620435,4.107637zm73.99156,-8.221441c-2.547396,0 -4.620435,1.842963 -4.620435,4.113804s2.073038,4.107637 4.620435,4.107637l37.004235,0l0,-8.221441l-37.004235,0z"/>
   <path stroke="null" id="svg_8" fill="#E6E9ED" d="m93.380275,51.103476l106.375361,0l0,49.340208l-106.375361,0l0,-49.340208z"/>
   <path stroke="null" id="svg_9" fill="#434A54" d="m51.755605,55.214197c2.554334,0 4.620435,-1.839879 4.620435,-4.11072s-2.066534,-4.113804 -4.620435,-4.113804l-4.627372,0l0,8.224524l4.627372,0zm0,24.670104c2.554334,0 4.620435,-1.839879 4.620435,-4.11072c0,-2.270456 -2.066534,-4.113419 -4.620435,-4.113419l-4.627372,0l0,8.224139l4.627372,0zm0,24.669719c2.554334,0 4.620435,-1.839879 4.620435,-4.11072c0,-2.270456 -2.066534,-4.113419 -4.620435,-4.113419l-4.627372,0l0,8.224139l4.627372,0zm0,24.667406c2.554334,0 4.620435,-1.837181 4.620435,-4.107637s-2.066534,-4.113804 -4.620435,-4.113804l-4.627372,0l0,8.221441l4.627372,0zm0,24.67049c2.554334,0 4.620435,-1.837181 4.620435,-4.107637s-2.066534,-4.113804 -4.620435,-4.113804l-4.627372,0l0,8.221441l4.627372,0zm129.491409,-74.007614l-69.371559,0c-2.547396,0 -4.620435,-1.839879 -4.620435,-4.11072c0,-2.270456 2.073038,-4.113419 4.620435,-4.113419l69.371559,0c2.560838,0 4.63431,1.842963 4.63431,4.113419s-2.073472,4.11072 -4.63431,4.11072z"/>
   <path stroke="null" id="svg_10" fill="#5D9CEC" d="m222.871684,199.123716c0,-2.270841 -2.073038,-4.113804 -4.620435,-4.113804l-143.373092,0l0,8.221441l143.373092,0c2.547396,0 4.620435,-1.836795 4.620435,-4.107637z"/>
   <path stroke="null" id="svg_11" fill="#656D78" d="m74.878158,195.009912l-9.247807,0c-5.101296,0 -9.254311,-3.691322 -9.254311,-8.22067c0,-4.535515 4.153015,-8.227608 9.254311,-8.227608l9.247807,0l0,-8.221441l-9.247807,0c-10.202593,0 -18.501684,7.378404 -18.501684,16.449049c0,9.064092 8.299091,16.44211 18.501684,16.44211l9.247807,0l0,-8.221441z"/>
   <path stroke="null" id="svg_12" fill="#ED5564" d="m102.628082,186.789242l-32.377297,0l0,28.777355c0,1.325268 0.718041,2.565731 1.924314,3.336684s2.757258,0.981808 4.166456,0.566265l12.411781,-3.680143l12.411781,3.680143c0.480862,0.138386 0.968661,0.210856 1.463398,0.210856c0.955219,0 1.903935,-0.265208 2.703058,-0.77712c1.20584,-0.770953 1.924314,-2.011801 1.924314,-3.336684l0,-28.777355l-4.627806,0z"/>
  </g>
  <text xml:space="preserve" text-anchor="start" font-family="'Times New Roman', Times, serif" font-size="150" id="svg_14" y="160.5" x="287.5" stroke-width="0" stroke="#000" fill="#2222bf">boya.wiki</text>
 </g>
</svg>