<svg width="950" height="250" xmlns="http://www.w3.org/2000/svg">
 <!-- Created with Method Draw - http://github.com/duopixel/Method-Draw/ -->

 <g>
  <title>background</title>
  <rect fill="#fff" id="canvas_background" height="252" width="952" y="-1" x="-1"/>
  <g display="none" overflow="visible" y="0" x="0" height="100%" width="100%" id="canvasGrid">
   <rect fill="url(#gridpattern)" stroke-width="0" y="0" x="0" height="100%" width="100%"/>
  </g>
 </g>
 <g>
  <title>Layer 1</title>
  <defs>
   <style type="text/css"/>
  </defs>
  <g stroke="null" id="svg_13">
   <path stroke="null" id="svg_4" fill="#656D78" d="m73.366699,29.319567c-8.402923,0 -15.238109,6.742853 -15.238109,15.031831l0,135.27098c0,2.075239 1.701654,3.753819 3.810777,3.753819l19.043886,0l0,-154.05663l-7.616555,0z"/>
   <path stroke="null" id="svg_5" fill="#E6E9ED" d="m73.366699,168.34965c-6.316298,0 -11.427332,5.047364 -11.427332,11.272728s5.111034,11.272024 11.427332,11.272024l125.699578,0l0,-22.544752l-125.699578,0z"/>
   <path stroke="null" id="svg_6" fill="#5D9CEC" d="m202.871698,33.079022c0,-2.075239 -1.707368,-3.759455 -3.80542,-3.759455l-118.083024,0l0,142.783902l118.083024,0c2.098052,0 3.80542,-1.678932 3.80542,-3.753819l0,-135.270628z"/>
   <path stroke="null" id="svg_7" fill="#CCD1D9" d="m107.649409,183.376197l-30.477289,0c-2.098052,0 -3.80542,-1.678932 -3.80542,-3.753819s1.707368,-3.759455 3.80542,-3.759455l30.477289,0c2.103766,0 3.80542,1.684216 3.80542,3.759455s-1.702011,3.753819 -3.80542,3.753819zm60.939937,-7.513274c-2.098052,0 -3.80542,1.684216 -3.80542,3.759455s1.707368,3.753819 3.80542,3.753819l30.476932,0l0,-7.513274l-30.476932,0z"/>
   <path stroke="null" id="svg_8" fill="#E6E9ED" d="m96.22172,55.624127l87.611448,0l0,45.090209l-87.611448,0l0,-45.090209z"/>
   <path stroke="null" id="svg_9" fill="#434A54" d="m61.939368,59.380763c2.103766,0 3.80542,-1.681398 3.80542,-3.756637s-1.702011,-3.759455 -3.80542,-3.759455l-3.811134,0l0,7.516092l3.811134,0zm0,22.545105c2.103766,0 3.80542,-1.681398 3.80542,-3.756637c0,-2.074887 -1.702011,-3.759103 -3.80542,-3.759103l-3.811134,0l0,7.515739l3.811134,0zm0,22.544752c2.103766,0 3.80542,-1.681398 3.80542,-3.756637c0,-2.074887 -1.702011,-3.759103 -3.80542,-3.759103l-3.811134,0l0,7.515739l3.811134,0zm0,22.542639c2.103766,0 3.80542,-1.678932 3.80542,-3.753819s-1.702011,-3.759455 -3.80542,-3.759455l-3.811134,0l0,7.513274l3.811134,0zm0,22.545457c2.103766,0 3.80542,-1.678932 3.80542,-3.753819s-1.702011,-3.759455 -3.80542,-3.759455l-3.811134,0l0,7.513274l3.811134,0zm106.649978,-67.632848l-57.134873,0c-2.098052,0 -3.80542,-1.681398 -3.80542,-3.756637c0,-2.074887 1.707368,-3.759103 3.80542,-3.759103l57.134873,0c2.109123,0 3.816848,1.684216 3.816848,3.759103s-1.707725,3.756637 -3.816848,3.756637z"/>
   <path stroke="null" id="svg_10" fill="#5D9CEC" d="m202.871698,190.894402c0,-2.075239 -1.707368,-3.759455 -3.80542,-3.759455l-118.083024,0l0,7.513274l118.083024,0c2.098052,0 3.80542,-1.67858 3.80542,-3.753819z"/>
   <path stroke="null" id="svg_11" fill="#656D78" d="m80.983254,187.134948l-7.616555,0c-4.201461,0 -7.621911,-3.373364 -7.621911,-7.512569c0,-4.144841 3.42045,-7.51891 7.621911,-7.51891l7.616555,0l0,-7.513274l-7.616555,0c-8.402923,0 -15.238109,6.742853 -15.238109,15.032183c0,8.283342 6.835186,15.025843 15.238109,15.025843l7.616555,0l0,-7.513274z"/>
   <path stroke="null" id="svg_12" fill="#ED5564" d="m103.838275,179.622379l-26.666155,0l0,26.298571c0,1.211114 0.591383,2.344728 1.584878,3.049273s2.270896,0.897239 3.431521,0.517489l10.222425,-3.363148l10.222425,3.363148c0.396041,0.126466 0.797796,0.192693 1.205264,0.192693c0.786725,0 1.568093,-0.242364 2.226257,-0.710182c0.993138,-0.704546 1.584878,-1.838512 1.584878,-3.049273l0,-26.298571l-3.811491,0z"/>
  </g>
  <text xml:space="preserve" text-anchor="start" font-family="'Shadows Into Light', serif" font-size="134" id="svg_14" y="159.5" x="322" stroke-width="0" stroke="#000" fill="#2D6862">boya.wiki</text>
  <line stroke="#000" stroke-linecap="undefined" stroke-linejoin="undefined" id="svg_15" y2="187.5" x2="556.499996" y1="187.5" x1="337.5" stroke-width="1.5" fill="none"/>
  <text xml:space="preserve" text-anchor="start" font-family="'Shadows Into Light', serif" font-size="32" id="svg_16" y="199" x="581" stroke-width="0" stroke="#000" fill="#2D6862">BOYA</text>
  <line stroke="#000" stroke-linecap="undefined" stroke-linejoin="undefined" id="svg_17" y2="186.5" x2="918.500003" y1="187.5" x1="662.5" stroke-width="1.5" fill="none"/>
 </g>
</svg>